<svg width="200" height="206" viewBox="0 0 200 206" fill="none" xmlns="http://www.w3.org/2000/svg">
<rect width="200" height="200" transform="translate(0 3)" fill="#F4F1EA"/>
<rect width="200" height="206" fill="black"/>
<path d="M78.023 39.6578H180.828V61.1265H78.023V39.6578ZM81.1494 84.3358H159.862V105.224H81.1494V84.3358ZM117.563 12H139.448V95.7471H117.563V12ZM105.057 100.969C111.801 118.892 122.1 134.236 135.954 147.001C149.808 159.637 167.157 168.599 188 173.885C186.406 175.561 184.69 177.56 182.851 179.881C181.012 182.202 179.295 184.587 177.701 187.037C176.23 189.616 174.943 191.937 173.839 194C151.77 187.166 133.563 176.4 119.218 161.7C104.996 147.001 93.6552 128.756 85.1954 106.965L105.057 100.969ZM157.471 84.3358H161.701L165.379 83.5622L179.54 89.5579C175.862 103.87 170.835 116.635 164.46 127.853C158.207 139.071 150.728 148.871 142.023 157.252C133.441 165.633 123.816 172.789 113.149 178.721C102.605 184.652 91.2644 189.487 79.1264 193.226C78.3908 191.292 77.3487 188.971 76 186.264C74.6513 183.685 73.1801 181.106 71.5862 178.527C70.1149 176.077 68.705 174.014 67.3563 172.338C78.3908 169.63 88.751 165.826 98.4368 160.927C108.245 156.027 117.073 150.031 124.92 142.939C132.766 135.848 139.448 127.724 144.966 118.57C150.605 109.286 154.774 99.0995 157.471 88.0106V84.3358ZM12 110.253C17.3946 109.092 23.5249 107.739 30.3908 106.191C37.2567 104.515 44.4291 102.71 51.908 100.776C59.5096 98.7127 66.9885 96.7141 74.3448 94.78L77.1034 116.055C67.0498 119.021 56.751 121.987 46.2069 124.952C35.7854 127.789 26.2835 130.303 17.7011 132.495L12 110.253ZM14.3908 48.9415H75.6322V70.4102H14.3908V48.9415ZM35.7241 12H57.4253V168.083C57.4253 173.627 56.8123 177.947 55.5862 181.041C54.4828 184.265 52.3372 186.779 49.1494 188.584C46.0843 190.261 42.2835 191.357 37.7471 191.872C33.2107 192.388 27.6322 192.646 21.0115 192.646C20.6437 189.68 19.8467 186.135 18.6207 182.008C17.3946 178.011 16.1073 174.53 14.7586 171.564C18.4368 171.693 21.931 171.758 25.2414 171.758C28.6743 171.758 31.0038 171.758 32.2299 171.758C34.5594 171.758 35.7241 170.468 35.7241 167.889V12Z" fill="#F4F1EA"/>
</svg>
