<svg width="200" height="200" viewBox="0 0 200 200" fill="none" xmlns="http://www.w3.org/2000/svg">
<rect width="200" height="200" fill="#F4F1EA"/>
<rect width="78" height="76" transform="translate(61 62)" fill="black"/>
<path d="M93.2571 81.9022H124.799V88.0361H93.2571V81.9022ZM94.2163 94.6674H118.367V100.635H94.2163V94.6674ZM105.389 74H112.103V97.9277H105.389V74ZM101.552 99.4198C103.621 104.541 106.781 108.925 111.031 112.572C115.282 116.182 120.605 118.742 127 120.253C126.511 120.732 125.984 121.303 125.42 121.966C124.856 122.629 124.329 123.311 123.84 124.011C123.389 124.747 122.994 125.411 122.655 126C115.884 124.047 110.298 120.971 105.897 116.772C101.533 112.572 98.0533 107.359 95.4577 101.133L101.552 99.4198ZM117.633 94.6674H118.931L120.06 94.4463L124.404 96.1594C123.276 100.249 121.734 103.896 119.777 107.101C117.859 110.306 115.564 113.106 112.893 115.501C110.26 117.895 107.307 119.94 104.034 121.634C100.799 123.329 97.3197 124.711 93.5956 125.779C93.3699 125.226 93.0502 124.563 92.6364 123.79C92.2226 123.053 91.7712 122.316 91.2821 121.579C90.8307 120.879 90.3981 120.29 89.9843 119.811C93.3699 119.037 96.5486 117.95 99.5204 116.55C102.53 115.151 105.238 113.437 107.646 111.411C110.053 109.385 112.103 107.064 113.796 104.448C115.527 101.796 116.806 98.8856 117.633 95.7173V94.6674ZM73 102.072C74.6552 101.741 76.536 101.354 78.6426 100.912C80.7492 100.433 82.9498 99.9171 85.2445 99.3645C87.5768 98.7751 89.8715 98.204 92.1285 97.6514L92.9749 103.73C89.8903 104.577 86.7304 105.425 83.4953 106.272C80.2978 107.083 77.3824 107.801 74.7492 108.427L73 102.072ZM73.7335 84.5547H92.5235V90.6886H73.7335V84.5547ZM80.279 74H86.9373V118.595C86.9373 120.179 86.7492 121.413 86.373 122.298C86.0345 123.219 85.3762 123.937 84.3981 124.453C83.4577 124.932 82.2915 125.245 80.8997 125.392C79.5078 125.539 77.7962 125.613 75.7649 125.613C75.652 124.766 75.4075 123.753 75.0313 122.574C74.6552 121.432 74.2602 120.437 73.8464 119.59C74.9749 119.627 76.047 119.645 77.0627 119.645C78.116 119.645 78.8307 119.645 79.2069 119.645C79.9216 119.645 80.279 119.277 80.279 118.54V74Z" fill="#F4F1EA"/>
</svg>
